<?xml version="1.0" encoding="utf-8"?>
<!-- Generator: Adobe Illustrator 16.0.3, SVG Export Plug-In . SVG Version: 6.00 Build 0)  -->
<!DOCTYPE svg PUBLIC "-//W3C//DTD SVG 1.1//EN" "http://www.w3.org/Graphics/SVG/1.1/DTD/svg11.dtd">
<svg version="1.1" id="Layer_1" xmlns="http://www.w3.org/2000/svg" xmlns:xlink="http://www.w3.org/1999/xlink" x="0px" y="0px"
	 width="141.732px" height="141.732px" viewBox="0 0 141.732 141.732" enable-background="new 0 0 141.732 141.732"
	 xml:space="preserve">
<path fill="#F9A134" d="M125.36,20.261v51.967c0,26.092-21.153,49.168-47.246,49.168H16.226V67.507
	c0-26.094,21.151-47.246,47.246-47.246H125.36z M32.43,73.884c4.497,0,6.678-2.567,6.678-6.724v-9.427h-4.497v9.768
	c0,1.521-0.705,2.499-2.113,2.499c-1.522,0-2.136-0.932-2.68-2.749l-4.316,1.136C26.319,71.726,28.205,73.884,32.43,73.884
	 M49.534,67.07c1.045,0,1.568,0.591,1.568,1.521c0,0.909-0.5,1.568-1.59,1.568h-3.475v-3.09H49.534 M49.353,61.209
	c1.045,0,1.386,0.545,1.386,1.249c0,0.75-0.364,1.25-1.386,1.25h-3.316v-2.499H49.353 M49.443,73.634
	c3.997,0,5.974-1.886,5.974-5.134c0-1.794-0.841-2.907-2.272-3.521c1.067-0.612,1.908-1.386,1.908-3.111
	c0-2.658-1.613-4.135-5.565-4.135h-7.678v15.9H49.443 M65.979,67.342h-2.635l0.296-1.045c0.567-2.021,0.817-2.907,1.022-3.976
	c0.204,1.068,0.454,1.932,1.021,3.976L65.979,67.342z M72.681,73.634l-5.771-15.9h-4.452l-5.769,15.9h4.724l0.864-2.794h4.77
	l0.863,2.794H72.681z M29.67,82.528c-0.286-0.191-0.641-0.3-1.213-0.3c-0.709,0-1.309,0.354-1.637,0.831v-0.682h-1.404v7.158h1.404
	v-4.09c0-1.214,0.519-1.841,1.405-1.841c0.463,0,0.777,0.096,1.077,0.259L29.67,82.528z M30.91,89.535h1.405v-7.157H30.91V89.535z
	 M31.619,81.451c0.491,0,0.9-0.41,0.9-0.899c0-0.504-0.409-0.914-0.9-0.914c-0.504,0-0.913,0.41-0.913,0.914
	C30.706,81.041,31.114,81.451,31.619,81.451 M36.499,89.685c1.404,0,2.686-0.531,2.686-2.112c0-1.351-0.818-1.786-2.414-2.4
	c-1.077-0.423-1.322-0.682-1.322-1.036c0-0.382,0.3-0.653,0.981-0.653c0.682,0,1.268,0.203,1.855,0.612l0.614-1.077
	c-0.642-0.463-1.527-0.79-2.427-0.79c-1.432,0-2.441,0.667-2.441,1.949c0,1.131,0.559,1.65,2.1,2.249
	c1.036,0.396,1.663,0.655,1.663,1.2c0,0.505-0.422,0.791-1.309,0.791c-0.668,0-1.418-0.246-2.086-0.709l-0.64,1.064
	C34.481,89.303,35.531,89.685,36.499,89.685 M46.313,89.536l-2.154-4.759l1.813-2.399h-1.595l-1.486,2.086
	c-0.232,0.341-0.6,0.887-0.791,1.173c0-0.354,0.014-1.091,0.014-1.527v-4.513l-1.405,0.737v9.202h1.405v-2.113l1.09-1.445
	l1.582,3.559H46.313z M35.137,101.651v-4.104c0-2.113-0.79-3.203-2.454-3.203c-1.117,0-1.676,0.409-2.195,1.049
	c-0.381-0.682-0.995-1.049-1.963-1.049c-0.736,0-1.349,0.313-1.704,0.831v-0.682h-1.405v7.158h1.405v-4.186
	c0-1.16,0.436-1.827,1.377-1.827c0.927,0,1.377,0.519,1.377,1.963v4.05h1.404v-4.186c0-1.16,0.437-1.827,1.377-1.827
	c0.927,0,1.377,0.519,1.377,1.963v4.05H35.137z M40.983,99.62c-0.328,0.449-0.982,0.913-1.732,0.913
	c-0.926,0-1.377-0.478-1.377-1.187c0-0.653,0.573-1.063,1.473-1.063c0.763,0,1.254,0.122,1.636,0.313V99.62z M42.36,101.651v-4.908
	c0-1.623-1.091-2.399-2.686-2.399c-1.008,0-1.772,0.217-2.454,0.641l0.546,1.063c0.559-0.313,1.131-0.45,1.867-0.45
	c0.873,0,1.35,0.437,1.35,1.213v0.532c-0.396-0.177-0.927-0.272-1.595-0.272c-1.622,0-2.85,0.723-2.85,2.317
	c0,1.76,1.323,2.413,2.482,2.413c0.777,0,1.472-0.368,1.963-0.858v0.709H42.36z M49.856,101.651v-4.104
	c0-2.113-0.886-3.203-2.549-3.203c-0.737,0-1.445,0.313-1.8,0.831v-0.682h-1.404v7.158h1.404v-4.186c0-1.16,0.531-1.827,1.473-1.827
	c0.926,0,1.472,0.519,1.472,1.963v4.05H49.856z M55.702,99.62c-0.328,0.449-0.982,0.913-1.732,0.913
	c-0.926,0-1.377-0.478-1.377-1.187c0-0.653,0.573-1.063,1.473-1.063c0.764,0,1.254,0.122,1.636,0.313V99.62z M57.079,101.651v-4.908
	c0-1.623-1.091-2.399-2.686-2.399c-1.008,0-1.772,0.217-2.454,0.641l0.546,1.063c0.559-0.313,1.131-0.45,1.868-0.45
	c0.872,0,1.349,0.437,1.349,1.213v0.532c-0.396-0.177-0.927-0.272-1.595-0.272c-1.622,0-2.85,0.723-2.85,2.317
	c0,1.76,1.323,2.413,2.482,2.413c0.777,0,1.472-0.368,1.963-0.858v0.709H57.079z M63.144,99.591
	c-0.368,0.464-0.955,0.914-1.622,0.914c-1.036,0-1.609-0.791-1.609-2.591c0-1.513,0.545-2.276,1.554-2.276
	c0.709,0,1.363,0.519,1.677,0.94V99.591z M61.14,104.282c2.59-0.081,3.381-1.131,3.381-3.313v-6.476h-1.405v0.669
	c-0.381-0.438-1.063-0.818-1.785-0.818c-1.473,0-2.823,1.158-2.823,3.612c0,2.727,1.228,3.845,2.755,3.845
	c0.749,0,1.335-0.354,1.853-0.832v0.123c0,1.486-0.436,2.031-2.454,2.127L61.14,104.282 M69.019,95.61
	c1.159,0,1.622,0.818,1.69,1.801h-3.327C67.504,96.265,68.078,95.61,69.019,95.61 M72.085,98.569
	c0.014-0.149,0.041-0.382,0.041-0.64c0-1.937-0.982-3.586-3.013-3.586c-1.854,0-3.136,1.309-3.136,3.735
	c0,2.373,1.418,3.722,3.096,3.722c1.09,0,1.84-0.34,2.467-0.94l-0.832-0.899c-0.477,0.354-0.954,0.571-1.554,0.571
	c-0.873,0-1.65-0.586-1.799-1.963H72.085 M83.317,101.651v-4.104c0-2.113-0.79-3.203-2.454-3.203c-1.117,0-1.676,0.409-2.195,1.049
	c-0.381-0.682-0.994-1.049-1.963-1.049c-0.736,0-1.349,0.313-1.703,0.831v-0.682h-1.406v7.158h1.406v-4.186
	c0-1.16,0.436-1.827,1.377-1.827c0.926,0,1.377,0.519,1.377,1.963v4.05h1.403v-4.186c0-1.16,0.437-1.827,1.377-1.827
	c0.927,0,1.377,0.519,1.377,1.963v4.05H83.317z M87.758,95.61c1.158,0,1.622,0.818,1.69,1.801h-3.327
	C86.244,96.265,86.818,95.61,87.758,95.61 M90.826,98.569c0.014-0.149,0.041-0.382,0.041-0.64c0-1.937-0.982-3.586-3.014-3.586
	c-1.854,0-3.136,1.309-3.136,3.735c0,2.373,1.418,3.722,3.095,3.722c1.092,0,1.842-0.34,2.469-0.94l-0.832-0.899
	c-0.478,0.354-0.955,0.571-1.555,0.571c-0.873,0-1.65-0.586-1.8-1.963H90.826 M98.09,101.651v-4.104
	c0-2.113-0.886-3.203-2.549-3.203c-0.737,0-1.445,0.313-1.8,0.831v-0.682h-1.404v7.158h1.404v-4.186c0-1.16,0.531-1.827,1.473-1.827
	c0.926,0,1.472,0.519,1.472,1.963v4.05H98.09z M103.417,100.232c-0.258,0.15-0.666,0.287-1.035,0.287
	c-0.519,0-0.736-0.191-0.736-0.859v-3.886h1.771v-1.281h-1.771v-2.78l-1.377,0.735v2.045h-1.023v1.281h1.023v4.131
	c0,1.282,0.613,1.896,1.609,1.896c0.559,0,1.035-0.137,1.377-0.328L103.417,100.232z"/>
</svg>
